<?xml version="1.0" encoding="UTF-8"?><svg id="Layer_2" xmlns="http://www.w3.org/2000/svg" viewBox="0 0 723.71 199.1"><defs><style>.cls-1{fill:#e12085;}.cls-1,.cls-2,.cls-3{stroke-width:0px;}.cls-2{fill:#e02386;}.cls-3{fill:#21aae2;}</style></defs><g id="plátno1"><g id="logo"><g id="logo-2"><path class="cls-3" d="m0,69.22v69.64h32.91v-37.95c0-17.93-14.8-32.3-32.66-31.7h-.25Z"/><path class="cls-3" d="m298.02,39.99v98.87h32.91v-53.87c0-25.46-14.8-45.85-32.66-45h-.25Z"/><path class="cls-2" d="m34.03,36.3c-3.57-4.85.32-11.14,10.73-10.44,1.8.12,3.6.19,5.41.09,2.8-.15,5.99-.39,8.28-.59,11.64-.52,18.32-16.39,19.29-23.95.09-.71-.48-1.33-1.19-1.33h-31.42c-4.77.01-9.54.39-14.23,1.24-2.77.5-5.7,1.23-8.14,2.54-3.37,1.69-5.36,5.26-5.24,9.03.55,16.22,10.78,21.4,16.04,23.98.36.18.72-.25.49-.57Z"/><path class="cls-3" d="m76.81,54.85l-32.15,18.67c-1.06.62-2.38-.13-2.41-1.35l-.11-5.38c0-.23-.22-.4-.45-.35-3.08.69-5.99,1.13-8.64,1.2h-.05c-.93,0-2.46-.08-3.38-.22C10.23,64.66.63,49.86,0,36.38.01,25.74,5.32,15.36,13.71,8.45c.33-.27.81.02.75.44-3.36,22.51,16.89,29.62,20.31,30.38,1.39.3,4.93.74,5.26.82.45.06.9.12,1.36.19.26.04.5-.16.5-.42l.07-6.4c.02-1.25,1.39-2,2.45-1.35l32.44,19.99c1.03.63,1.01,2.14-.04,2.75Z"/><path class="cls-3" d="m164.65,41c.01-.58-.45-1.06-1.03-1.06h-28.83c-32.31,0-49.36,17.25-49.36,47.18v51.74h33.1v-51.94c0-9.31,7.54-16.85,16.85-16.85h7.71c20.82-1.8,21.42-23.63,21.55-29.07Z"/><path class="cls-3" d="m251.89,112.59c-2.84-.64-5.76-.88-8.67-.88h-21.61c-11.7,0-20.02-7.73-20.02-22.6s8.33-23.59,20.02-23.59h20.22c5.15,0,7.53,2.58,7.53,7.33s-2.58,6.94-7.73,6.94h-9.15c-1.28,0-2.57.08-3.83.34-11.7,2.48-17.61,14.83-18.39,17.34-.06.2.09.4.3.4,4.7.03,38.01-.05,38.01-.05,22.8,0,32.31-8.92,32.31-26.17,0-18.63-11.1-31.72-33.9-31.72h-25.17c-30.73,0-53.12,20.02-53.12,49.36s22.4,49.56,53.12,49.56l54.7.41c.82,0,1.41-.77,1.2-1.56-1.73-6.48-9.16-21.86-25.82-25.12Z"/><path class="cls-3" d="m413.56,41.52c-15.83,3.74-20.43,18.78-22.02,28.46-.09.52.38.97.91.88,3.8-.63,13.65-.85,18.87-.85,15.26,0,23.99,4.88,23.99,19.11s-8.52,20.09-20.22,20.09h-16.65c-11.3,0-17.25-5.85-17.25-16.77v-47.67c0-16.13-8.1-31.38-21.92-40.05-3.52-2.21-7.06-3.83-10.26-4.68-.49-.17-1,.2-1,.71l.07,91.69c0,29.65,16.85,46.42,49.56,46.42h17.44c30.73,0,53.32-18.34,53.32-50.71,0-26.49-15.16-44.21-44.55-47.15-3.44-.34-6.93-.27-10.29.52Z"/><path class="cls-3" d="m568.68,39.9c-.55-.05-1.03.39-1.02.95l.06,50.83c0,11.1-5.75,17.05-17.25,17.05h-17.44c-11.3,0-17.25-5.95-17.25-17.05v-17.94c0-17.29-14.09-32.83-31.35-33.84-.37-.02-.74-.04-1.11-.05s-.66.27-.67.63c-.15,6.18.02,51.21.02,51.21,0,30.13,16.85,47.18,49.56,47.18h19.03c32.71,0,49.56-17.05,49.56-47.18v-22.18c0-3.7-.62-7.4-2.07-10.8-6.37-15.03-23.68-18.24-30.07-18.8Z"/><path class="cls-3" d="m691.8,79.39h-39.65c-4.56,0-6.74-2.18-6.74-6.15s2.58-6.14,6.74-6.14h46.85c13.7-.34,20.91-16.66,22.66-24.71.28-1.26-.7-2.45-2-2.45h-73.65c-18.24,0-31.91,11.5-31.91,29.54,0,16.85,11.89,29.73,32.11,29.73h38.85c4.76,0,6.94,2.38,6.94,6.15,0,4.16-2.58,6.34-6.94,6.34h-38.51c-18.12.69-28.83,18.07-30.9,25.28-.27.95.45,1.88,1.43,1.88,12.45.02,74.72,0,74.72,0,18.43,0,31.91-11.7,31.91-29.93,0-17.05-11.7-29.54-31.91-29.54Z"/><g id="podnadpis2"><path class="cls-1" d="m266.63,167.37c-.17-1.72-.9-3.05-2.19-4.01-1.29-.95-3.05-1.43-5.26-1.43-1.51,0-2.78.21-3.81.63-1.04.42-1.83,1-2.38,1.74s-.82,1.58-.82,2.51c-.03.78.14,1.46.5,2.05.36.58.86,1.08,1.5,1.5s1.38.78,2.22,1.09c.84.31,1.73.56,2.68.78l3.92.94c1.9.43,3.65.99,5.24,1.71,1.59.71,2.97,1.58,4.13,2.62,1.16,1.04,2.07,2.26,2.72,3.67.65,1.41.98,3.02.99,4.84-.01,2.67-.69,4.98-2.03,6.93-1.34,1.95-3.27,3.47-5.8,4.54-2.52,1.07-5.56,1.61-9.11,1.61s-6.59-.54-9.19-1.62-4.64-2.68-6.09-4.8c-1.46-2.12-2.22-4.75-2.29-7.89h8.93c.1,1.46.52,2.68,1.27,3.65.75.97,1.75,1.7,3,2.19s2.68.74,4.27.74,2.92-.23,4.08-.68c1.16-.46,2.06-1.09,2.7-1.9.64-.81.96-1.74.96-2.79,0-.98-.29-1.8-.86-2.47s-1.41-1.24-2.51-1.71c-1.1-.47-2.45-.89-4.04-1.28l-4.75-1.19c-3.68-.9-6.58-2.29-8.71-4.2-2.13-1.9-3.19-4.47-3.17-7.69-.01-2.64.69-4.95,2.12-6.92,1.43-1.97,3.39-3.52,5.89-4.62,2.5-1.11,5.34-1.66,8.52-1.66s6.07.55,8.49,1.66c2.42,1.11,4.31,2.65,5.66,4.62,1.35,1.97,2.05,4.26,2.09,6.86h-8.84Z"/><path class="cls-1" d="m291.15,154.83v43.64h-9.08v-43.64h9.08Z"/><path class="cls-1" d="m313.18,199.1c-3.31,0-6.17-.71-8.58-2.12s-4.27-3.39-5.57-5.92c-1.31-2.54-1.96-5.48-1.96-8.83s.65-6.34,1.96-8.87c1.31-2.54,3.16-4.51,5.57-5.92,2.41-1.41,5.27-2.12,8.58-2.12s6.17.71,8.58,2.12c2.41,1.41,4.27,3.39,5.57,5.92,1.31,2.54,1.96,5.49,1.96,8.87s-.65,6.3-1.96,8.83c-1.31,2.54-3.16,4.51-5.57,5.92-2.41,1.41-5.27,2.12-8.58,2.12Zm.04-7.03c1.51,0,2.76-.43,3.77-1.29,1.01-.86,1.77-2.04,2.29-3.53.52-1.49.78-3.19.78-5.09s-.26-3.6-.78-5.09c-.52-1.49-1.28-2.67-2.29-3.54-1.01-.87-2.27-1.3-3.77-1.3s-2.79.43-3.82,1.3-1.8,2.05-2.32,3.54-.78,3.19-.78,5.09.26,3.6.78,5.09,1.29,2.67,2.32,3.53,2.3,1.29,3.82,1.29Z"/><path class="cls-1" d="m364.64,165.73l-11.44,32.73h-10.23l-11.44-32.73h9.59l6.8,23.42h.34l6.78-23.42h9.61Z"/><path class="cls-1" d="m377.7,199.08c-2.09,0-3.95-.37-5.58-1.1s-2.92-1.82-3.87-3.26c-.94-1.44-1.42-3.24-1.42-5.4,0-1.82.33-3.34,1-4.58.67-1.24,1.58-2.23,2.73-2.98,1.15-.75,2.46-1.32,3.93-1.71,1.47-.38,3.01-.65,4.63-.81,1.9-.2,3.44-.39,4.6-.56,1.16-.18,2.01-.44,2.54-.8s.79-.88.79-1.58v-.13c0-1.35-.42-2.39-1.27-3.13-.84-.74-2.04-1.11-3.59-1.11-1.63,0-2.93.36-3.9,1.08-.97.72-1.61,1.62-1.92,2.7l-8.4-.68c.43-1.99,1.26-3.71,2.51-5.17,1.25-1.46,2.87-2.58,4.85-3.37,1.98-.79,4.28-1.18,6.89-1.18,1.82,0,3.56.21,5.23.64,1.67.43,3.15,1.09,4.45,1.98,1.3.89,2.33,2.04,3.08,3.44.75,1.4,1.13,3.07,1.13,5.02v22.07h-8.61v-4.54h-.26c-.53,1.02-1.23,1.92-2.11,2.7s-1.94,1.38-3.17,1.81c-1.24.43-2.66.65-4.28.65Zm2.6-6.26c1.33,0,2.51-.27,3.54-.8,1.02-.53,1.83-1.25,2.41-2.16.58-.91.87-1.94.87-3.09v-3.47c-.28.18-.67.35-1.16.5-.49.15-1.04.29-1.65.41-.61.12-1.22.23-1.83.32-.61.09-1.17.17-1.66.25-1.07.16-2,.41-2.79.75-.8.34-1.41.8-1.85,1.37-.44.58-.66,1.29-.66,2.14,0,1.24.45,2.18,1.35,2.82.9.65,2.05.97,3.44.97Z"/><path class="cls-1" d="m403.18,198.46v-43.64h9.08v43.64h-9.08Zm8.22-9.42l.02-10.89h1.32l10.48-12.42h10.42l-14.08,16.45h-2.15l-6.01,6.86Zm12.23,9.42l-9.63-14.25,6.05-6.41,14.21,20.67h-10.63Z"/><path class="cls-1" d="m442.64,161.52c-1.35,0-2.5-.45-3.46-1.34s-1.44-1.97-1.44-3.24.48-2.35,1.45-3.25c.97-.9,2.12-1.35,3.45-1.35s2.5.45,3.46,1.34c.96.9,1.44,1.97,1.44,3.24s-.48,2.35-1.44,3.25c-.96.9-2.11,1.35-3.46,1.35Zm-4.56,36.95v-32.73h9.08v32.73h-9.08Z"/><path class="cls-1" d="m463.73,199.08c-2.09,0-3.95-.37-5.58-1.1s-2.92-1.82-3.87-3.26c-.94-1.44-1.42-3.24-1.42-5.4,0-1.82.33-3.34,1-4.58.67-1.24,1.58-2.23,2.73-2.98,1.15-.75,2.46-1.32,3.93-1.71,1.47-.38,3.01-.65,4.63-.81,1.9-.2,3.44-.39,4.6-.56,1.16-.18,2.01-.44,2.54-.8s.79-.88.79-1.58v-.13c0-1.35-.42-2.39-1.27-3.13-.84-.74-2.04-1.11-3.59-1.11-1.63,0-2.93.36-3.9,1.08-.97.72-1.61,1.62-1.92,2.7l-8.4-.68c.43-1.99,1.26-3.71,2.51-5.17,1.25-1.46,2.87-2.58,4.85-3.37,1.98-.79,4.28-1.18,6.89-1.18,1.82,0,3.56.21,5.23.64,1.67.43,3.15,1.09,4.45,1.98,1.3.89,2.33,2.04,3.08,3.44.75,1.4,1.13,3.07,1.13,5.02v22.07h-8.61v-4.54h-.26c-.53,1.02-1.23,1.92-2.11,2.7s-1.94,1.38-3.17,1.81c-1.24.43-2.66.65-4.28.65Zm2.6-6.26c1.33,0,2.51-.27,3.54-.8,1.02-.53,1.83-1.25,2.41-2.16.58-.91.87-1.94.87-3.09v-3.47c-.28.18-.67.35-1.16.5-.49.15-1.04.29-1.65.41-.61.12-1.22.23-1.83.32-.61.09-1.17.17-1.66.25-1.07.16-2,.41-2.79.75-.8.34-1.41.8-1.85,1.37-.44.58-.66,1.29-.66,2.14,0,1.24.45,2.18,1.35,2.82.9.65,2.05.97,3.44.97Z"/></g></g></g></g></svg>