<?xml version="1.0" encoding="UTF-8"?><svg id="a" xmlns="http://www.w3.org/2000/svg" viewBox="0 0 77.7340648 73.6536937"><path d="m34.0255703,36.2188819c-3.5667297-4.8535577.3201364-11.142241,10.7253052-10.444803,1.802439.1208139,3.6041514.1893656,5.407949.0908949,2.8043088-.1530894,5.9889874-.3919033,8.2764212-.5887887,11.6448799-.5202492,18.3224309-16.3942664,19.289288-23.9466974C77.8153376.6201881,77.2452325-.0002951,76.5301443.0000001l-31.4234979.0129722c-4.7704932.0019693-9.5382139.3788629-14.2319632,1.231111-2.7742447.503722-5.7047035,1.2253419-8.1401155,2.5355967-3.3710459,1.6884082-5.3644654,5.2611511-5.2357991,9.02919.5538161,16.2187035,10.7822086,21.3991849,16.040398,23.983438.3611541.1774971.7247009-.2491546.4864038-.5734261Z" style="fill:#e02384; stroke-width:0px;"/><path d="m76.8099976,54.7614756l-32.1500244,18.6699829c-1.0599976.6199951-2.3800049-.1300049-2.4099731-1.3499756l-.1107079-5.378746c-.004806-.2334997-.2245361-.4013964-.4523953-.3501577-3.0768999.6919036-5.9935307,1.1321245-8.636909,1.1988744h-.0499878c-.9300537,0-2.460022-.0799561-3.3800049-.2199707C10.2299805,64.5714731.6300049,49.7714853,0,36.2915048.0099487,25.6514902,5.3199463,15.2714853,13.7099609,8.3614511c.3300171-.2699585.8099976.0200195.75.4400024-3.3599854,22.5100098,16.8900146,29.6200562,20.3099976,30.3800049,1.3900146.3000488,4.9299927.7400513,5.2600098.8200073.4545782.0586683.9037755.1227175,1.3555064.1921238.2605966.0400394.4972621-.1578642.5003171-.4215011l.0741691-6.4006275c.0200195-1.25,1.3900146-2,2.4500122-1.3499756l32.4400024,19.9899902c1.0300293.6300049,1.0100098,2.1400146-.039978,2.75Z" style="fill:#20a9e1; stroke-width:0px;"/></svg>